<svg width="2736" height="576" viewBox="0 0 2736 576" fill="none" xmlns="http://www.w3.org/2000/svg">
<path d="M1516.96 380.919C1488.1 380.919 1461.34 376.4 1436.66 367.362C1412.32 357.976 1391.12 344.767 1373.04 327.734C1355.31 310.701 1341.41 290.713 1331.33 267.77C1321.25 244.48 1316.21 218.93 1316.21 191.121C1316.21 163.311 1321.25 137.935 1331.33 114.993C1341.41 91.7025 1355.31 71.5407 1373.04 54.5075C1391.12 37.4743 1412.32 24.4388 1436.66 15.4007C1461.34 6.01509 1488.1 1.32227 1516.96 1.32227C1550.67 1.32227 1580.74 7.23175 1607.16 19.0507C1631.54 29.813 1652.16 44.8988 1669.04 64.3082C1671.84 67.5326 1671.44 72.3834 1668.27 75.2503L1614.39 123.992C1611.01 127.057 1605.77 126.695 1602.63 123.378C1592.32 112.487 1581.15 103.957 1569.1 97.7857C1555.19 90.4858 1539.55 86.8358 1522.17 86.8358C1507.22 86.8358 1493.49 89.2692 1480.98 94.1358C1468.46 99.0024 1457.69 106.129 1448.65 115.514C1439.96 124.552 1433.01 135.502 1427.79 148.364C1422.93 161.226 1420.49 175.478 1420.49 191.121C1420.49 206.763 1422.93 221.016 1427.79 233.877C1433.01 246.739 1439.96 257.863 1448.65 267.249C1457.69 276.287 1468.46 283.239 1480.98 288.106C1493.49 292.972 1507.22 295.406 1522.17 295.406C1539.55 295.406 1555.19 291.756 1569.1 284.456C1581.15 278.285 1592.32 269.754 1602.63 258.864C1605.77 255.547 1611.01 255.185 1614.39 258.249L1668.22 306.952C1671.41 309.835 1671.8 314.719 1668.96 317.941C1652.09 337.047 1631.5 352.13 1607.16 363.191C1580.74 375.01 1550.67 380.919 1516.96 380.919Z" fill="#06273A"/>
<path d="M1682.45 373.619C1676.6 373.619 1672.68 367.608 1675.04 362.258L1829.02 13.4471C1830.31 10.5144 1833.21 8.62221 1836.42 8.62221H1927.56C1930.76 8.62221 1933.66 10.5103 1934.96 13.4382L2089.43 362.249C2091.8 367.6 2087.88 373.619 2082.03 373.619H1992.52C1989.22 373.619 1986.24 371.608 1985.01 368.54L1865.32 70.3077C1863.19 64.9904 1867.11 59.2004 1872.84 59.2004H1889.57C1895.3 59.2004 1899.21 64.9904 1897.08 70.3077L1777.39 368.54C1776.16 371.608 1773.19 373.619 1769.88 373.619H1682.45ZM1769.55 302.705C1763.97 302.705 1760.07 297.205 1761.91 291.943L1782.84 232.002C1783.98 228.753 1787.04 226.578 1790.48 226.578H1957.32C1960.76 226.578 1963.83 228.753 1964.96 232.002L1985.9 291.943C1987.74 297.205 1983.83 302.705 1978.26 302.705H1769.55Z" fill="#06273A"/>
<path d="M2131.83 373.619C2127.36 373.619 2123.73 369.996 2123.73 365.526V16.7153C2123.73 12.2456 2127.36 8.62221 2131.83 8.62221H2218.88C2223.35 8.62221 2226.98 12.2456 2226.98 16.7153V283.662C2226.98 288.132 2230.6 291.756 2235.07 291.756H2393.04C2397.51 291.756 2401.13 295.379 2401.13 299.849V365.526C2401.13 369.996 2397.51 373.619 2393.04 373.619H2131.83Z" fill="#06273A"/>
<path d="M2536.89 158.021C2536.89 153.552 2540.51 149.928 2544.98 149.928H2698.26C2702.73 149.928 2706.35 153.552 2706.35 158.021V219.006C2706.35 223.476 2702.73 227.099 2698.26 227.099H2544.98C2540.51 227.099 2536.89 223.476 2536.89 219.006V158.021ZM2544.19 285.748C2544.19 290.218 2547.81 293.841 2552.28 293.841H2726.93C2731.4 293.841 2735.03 297.465 2735.03 301.934V365.526C2735.03 369.996 2731.4 373.619 2726.93 373.619H2450.08C2445.61 373.619 2441.99 369.996 2441.99 365.526V16.7153C2441.99 12.2456 2445.61 8.62221 2450.08 8.62221H2720.16C2724.62 8.62221 2728.25 12.2456 2728.25 16.7153V80.307C2728.25 84.7767 2724.62 88.4001 2720.16 88.4001H2552.28C2547.81 88.4001 2544.19 92.0235 2544.19 96.4932V285.748Z" fill="#06273A"/>
<path d="M1125.65 380.919C1095.75 380.919 1066.9 377.269 1039.09 369.969C1033.65 368.455 1022.89 365.16 1015.8 362.841C1040.08 319.677 1029.81 283.815 1023.9 273.817C1036.69 280.662 1046.7 285.685 1062.03 290.713C1083.59 297.317 1104.96 300.62 1126.17 300.62C1140.42 300.62 1151.89 299.403 1160.58 296.97C1169.27 294.189 1175.53 290.713 1179.35 286.541C1183.53 282.022 1185.61 276.808 1185.61 270.899C1185.61 262.556 1181.79 255.951 1174.14 251.084C1166.49 246.218 1156.58 242.22 1144.42 239.092C1132.25 235.963 1118.69 232.835 1103.75 229.706C1089.15 226.578 1074.37 222.58 1059.43 217.713C1044.83 212.847 1031.44 206.59 1019.28 198.942C1007.11 190.947 997.203 180.692 989.555 168.178C981.908 155.316 978.084 139.152 978.084 119.686C978.084 97.7858 983.993 77.9716 995.812 60.2432C1007.98 42.5148 1026.05 28.2625 1050.04 17.4864C1074.03 6.71032 1103.92 1.32227 1139.73 1.32227C1163.71 1.32227 1187.18 4.10321 1210.12 9.66507C1230.78 14.2909 1249.39 20.9685 1265.95 29.698C1269.54 31.5935 1271 35.937 1269.44 39.6909L1243.8 101.501C1241.96 105.93 1236.7 107.788 1232.41 105.648C1217.73 98.3256 1203.17 92.7502 1188.74 88.9216C1171.71 84.0549 1155.19 81.6216 1139.2 81.6216C1124.95 81.6216 1113.48 83.1859 1104.79 86.3144C1096.1 89.0954 1089.84 92.9191 1086.02 97.7857C1082.19 102.652 1080.28 108.214 1080.28 114.471C1080.28 122.466 1083.93 128.897 1091.23 133.764C1098.88 138.283 1108.79 142.107 1120.95 145.235C1133.47 148.016 1147.03 150.971 1161.63 154.1C1176.57 157.228 1191.35 161.226 1205.95 166.092C1220.89 170.611 1234.45 176.868 1246.62 184.864C1258.78 192.511 1268.52 202.766 1275.82 215.628C1283.46 228.142 1287.29 243.958 1287.29 263.077C1287.29 284.282 1281.21 303.922 1269.04 321.998C1257.22 339.727 1239.32 353.979 1215.33 364.755C1191.69 375.531 1161.8 380.919 1125.65 380.919Z" fill="#06273A"/>
<path fill-rule="evenodd" clip-rule="evenodd" d="M617.664 379.597C588.812 379.597 562.045 375.078 537.364 366.04C513.031 356.654 491.827 343.445 473.751 326.412C456.022 309.378 442.118 289.39 432.037 266.448C421.956 243.157 416.915 217.608 416.915 189.798C416.915 161.989 421.956 136.613 432.037 113.67C442.118 90.3802 456.022 70.2185 473.751 53.1853C491.827 36.1521 513.031 23.1165 537.364 14.0785C562.045 4.69282 588.812 0 617.664 0C651.382 0 681.451 5.90949 707.87 17.7284C732.243 28.4907 752.87 43.5766 769.749 62.986C772.553 66.2103 772.144 71.0612 768.975 73.928L715.103 122.67C711.716 125.735 706.482 125.373 703.341 122.055C693.032 111.165 681.854 102.634 669.806 96.4635C655.901 89.1635 640.259 85.5136 622.878 85.5136C607.93 85.5136 594.2 87.9469 581.685 92.8135C569.171 97.6801 558.395 104.806 549.357 114.192C540.667 123.23 533.714 134.18 528.5 147.042C523.633 159.903 521.2 174.156 521.2 189.798C521.2 205.441 523.633 219.693 528.5 232.555C533.714 245.417 540.667 256.541 549.357 265.926C558.395 274.964 569.171 281.917 581.685 286.783C594.2 291.65 607.93 294.083 622.878 294.083C640.259 294.083 655.901 290.433 669.806 283.133C684.058 275.833 696.223 266.705 710.964 253.583C717.927 247.386 723.2 242.387 727.864 237.966C737.728 228.613 744.869 221.844 759.523 211.769C789.546 191.128 815.088 187.517 850.892 187.517C879.049 187.517 903.73 194.734 924.935 203.772C946.139 212.81 962.651 225.671 974.47 242.357C986.637 259.043 992.72 278.683 992.72 301.278C992.72 313.097 991.156 324.916 988.027 336.735C984.898 348.206 978.815 360.547 969.777 373.756C961.087 386.618 948.051 401.044 930.67 417.034L860.551 484.863C857.065 488.235 859.452 494.136 864.302 494.136H1013.42C1017.89 494.136 1021.51 497.76 1021.51 502.229V567.907C1021.51 572.377 1017.89 576 1013.42 576H715.753C711.283 576 707.66 572.377 707.66 567.907V514.797C707.66 512.591 708.561 510.48 710.154 508.954L855.064 370.106C864.797 361.068 871.923 353.073 876.442 346.12C881.309 339.168 884.438 332.911 885.828 327.349C887.566 321.44 888.435 316.052 888.435 311.185C888.435 299.366 884.438 290.154 876.442 283.55C868.795 276.945 855.975 271.119 840.332 271.119C827.122 271.119 817.862 274.858 806.733 283.55C793.244 294.083 785.595 300.314 773.011 311.185C766.66 316.672 761.015 321.912 755.666 326.878C740.471 340.983 727.667 352.87 707.87 361.868C681.451 373.687 651.382 379.597 617.664 379.597ZM0 366.887C0 371.356 3.62341 374.98 8.0931 374.98H176.856C218.176 374.98 254.509 367.357 285.855 352.111C317.201 336.865 341.601 315.415 359.055 287.759C376.866 259.75 385.771 226.776 385.771 188.839C385.771 150.547 376.866 117.573 359.055 89.9181C341.601 62.2629 317.201 40.8123 285.855 25.5665C254.509 10.3206 218.176 2.6977 176.856 2.6977H8.09309C3.6234 2.6977 0 6.32107 0 10.7908V366.887ZM113.886 290.95C109.416 290.95 105.793 287.327 105.793 282.857V94.8202C105.793 90.3505 109.416 86.7271 113.886 86.7271H172.582C193.954 86.7271 212.477 90.8045 228.15 98.9592C244.179 106.759 256.646 118.282 265.551 133.528C274.456 148.774 278.909 167.211 278.909 188.839C278.909 210.112 274.456 228.549 265.551 244.149C256.646 259.395 244.179 271.095 228.15 279.25C212.477 287.05 193.954 290.95 172.582 290.95H113.886Z" fill="#12D6B0"/>
</svg>
