<svg width="403" height="152" viewBox="0 0 403 152" fill="none" xmlns="http://www.w3.org/2000/svg"><g clip-path="url(#clip0)"><path fill-rule="evenodd" clip-rule="evenodd" d="M47.0613 151.74C20.9556 151.74 0 132.836 0 105.37C0 77.7264 20.9556 59 46.8837 59C72.9894 59 93.5898 77.7264 93.5898 105.37C93.5898 132.836 73.1669 151.74 47.0613 151.74ZM47.0613 131.23C61.0909 131.23 70.5031 119.995 70.5031 105.37C70.5031 90.9241 61.0909 79.5099 46.8837 79.5099C32.8541 79.5099 23.0867 90.9241 23.0867 105.37C23.0867 119.816 32.8541 131.23 47.0613 131.23ZM152.194 151.74C126.089 151.74 105.133 132.836 105.133 105.37C105.133 77.7264 126.089 59 152.017 59C178.122 59 198.723 77.7264 198.723 105.37C198.723 132.836 178.3 151.74 152.194 151.74ZM152.194 131.23C166.224 131.23 175.636 119.995 175.636 105.37C175.636 90.9241 166.224 79.5099 152.017 79.5099C137.987 79.5099 128.22 90.9241 128.22 105.37C128.22 119.816 137.987 131.23 152.194 131.23ZM275.086 121.892H296.93C292.668 141.332 275.797 151.74 255.729 151.74C228.025 151.74 210.266 132.836 210.266 105.192C210.266 77.7264 229.801 59 254.131 59C277.75 59 299.949 73.6244 296.93 111.612H232.465C234.241 124.453 241.522 132.836 256.084 132.836C264.786 132.836 271.89 129.026 275.086 121.892ZM255.196 77.1914C244.186 77.1914 236.194 83.6118 233.353 94.8477H275.619C275.264 85.9303 267.45 77.1914 255.196 77.1914ZM356.245 151.74C330.139 151.74 309.184 132.836 309.184 105.37C309.184 77.7264 330.139 59 356.067 59C382.173 59 402.773 77.7264 402.773 105.37C402.773 132.836 382.351 151.74 356.245 151.74ZM356.245 131.23C370.274 131.23 379.687 119.995 379.687 105.37C379.687 90.9241 370.274 79.5099 356.067 79.5099C342.038 79.5099 332.27 90.9241 332.27 105.37C332.27 119.816 342.038 131.23 356.245 131.23Z" fill="#FF3179"/><path d="M29.7064 39H35.7987L23.1374 1.9168H15.6678L3.00654 39H9.09878L12.0654 29.9411H26.7398L29.7064 39ZM13.6547 25.0143L19.1642 8.16797H19.641L25.1505 25.0143H13.6547ZM55.2297 19.4519V24.0608H65.9309V30.153C64.4476 31.7953 61.1101 34.2851 56.5012 34.2851C48.5548 34.2851 44.7405 28.5108 44.7405 20.9882C44.7405 12.8299 49.1905 6.73761 56.2892 6.73761C61.6398 6.73761 64.6595 9.8632 65.4541 13.2537H71.3874C70.4338 6.68464 65.56 1.38704 56.0244 1.38704C45.906 1.38704 38.9131 9.70427 38.9131 21.253C38.9131 31.6893 44.8464 39.5298 55.3357 39.5298C61.269 39.5298 64.9773 36.5631 66.3547 35.0798H66.8315L67.7321 39H71.5993V19.4519H55.2297ZM86.2613 33.7554V22.6834H102.26V17.7036H86.2613V7.10844H104.538V1.9168H80.7518V39H105.068V33.7554H86.2613ZM136.181 1.9168V28.8816H135.651L117.746 1.9168H111.6V39H117.11V11.8763H117.587L135.863 39H141.691V1.9168H136.181ZM182.841 27.5042H176.855C175.53 31.4244 171.875 34.1792 167.16 34.1792C159.903 34.1792 155.4 28.6167 155.4 20.5114C155.4 12.9358 159.744 6.79059 166.683 6.79059C171.716 6.79059 175.054 9.43939 176.166 13.5715H182.152C180.722 5.25429 174.047 1.38704 166.577 1.38704C156.247 1.38704 149.307 9.54534 149.307 20.5114C149.307 31.6363 156.194 39.5298 167.16 39.5298C175.001 39.5298 181.358 34.9208 182.841 27.5042ZM195.466 33.7554V22.6834H211.464V17.7036H195.466V7.10844H213.742V1.9168H189.956V39H214.272V33.7554H195.466Z" fill="#fff"/></g><defs><clipPath id="clip0"><rect width="403" height="162" fill="#fff"/></clipPath></defs></svg>