<svg width="403" height="152" xmlns="http://www.w3.org/2000/svg" fill="none">
 <defs>
  <clipPath id="clip0">
   <rect id="svg_1" fill="#fff" height="162" width="403"/>
  </clipPath>
 </defs>
 <g>
  <title>Layer 1</title>
  <path id="svg_3" fill="#FF3179" d="m47.0613,151.74c-26.1057,0 -47.0613,-18.904 -47.0613,-46.37c0,-27.6436 20.9556,-46.37 46.8837,-46.37c26.1057,0 46.7061,18.7264 46.7061,46.37c0,27.466 -20.4229,46.37 -46.5285,46.37zm0,-20.51c14.0296,0 23.4418,-11.235 23.4418,-25.86c0,-14.4459 -9.4122,-25.8601 -23.6194,-25.8601c-14.0296,0 -23.797,11.4142 -23.797,25.8601c0,14.446 9.7674,25.86 23.9746,25.86zm105.1327,20.51c-26.105,0 -47.061,-18.904 -47.061,-46.37c0,-27.6436 20.956,-46.37 46.884,-46.37c26.105,0 46.706,18.7264 46.706,46.37c0,27.466 -20.423,46.37 -46.529,46.37zm0,-20.51c14.03,0 23.442,-11.235 23.442,-25.86c0,-14.4459 -9.412,-25.8601 -23.619,-25.8601c-14.03,0 -23.797,11.4142 -23.797,25.8601c0,14.446 9.767,25.86 23.974,25.86zm122.892,-9.338l21.844,0c-4.262,19.44 -21.133,29.848 -41.201,29.848c-27.704,0 -45.463,-18.904 -45.463,-46.548c0,-27.4656 19.535,-46.192 43.865,-46.192c23.619,0 45.818,14.6244 42.799,52.612l-64.465,0c1.776,12.841 9.057,21.224 23.619,21.224c8.702,0 15.806,-3.81 19.002,-10.944zm-19.89,-44.7006c-11.01,0 -19.002,6.4204 -21.843,17.6563l42.266,0c-0.355,-8.9174 -8.169,-17.6563 -20.423,-17.6563zm101.049,74.5486c-26.106,0 -47.061,-18.904 -47.061,-46.37c0,-27.6436 20.955,-46.37 46.883,-46.37c26.106,0 46.706,18.7264 46.706,46.37c0,27.466 -20.422,46.37 -46.528,46.37zm0,-20.51c14.029,0 23.442,-11.235 23.442,-25.86c0,-14.4459 -9.413,-25.8601 -23.62,-25.8601c-14.029,0 -23.797,11.4142 -23.797,25.8601c0,14.446 9.768,25.86 23.975,25.86z" clip-rule="evenodd" fill-rule="evenodd"/>
  <path stroke="#fff" id="svg_4" fill="#000000" d="m29.7064,39l6.0923,0l-12.6613,-37.0832l-7.4696,0l-12.66126,37.0832l6.09224,0l2.96662,-9.0589l14.6744,0l2.9666,9.0589zm-16.0517,-13.9857l5.5095,-16.84633l0.4768,0l5.5095,16.84633l-11.4958,0zm41.575,-5.5624l0,4.6089l10.7012,0l0,6.0922c-1.4833,1.6423 -4.8208,4.1321 -9.4297,4.1321c-7.9464,0 -11.7607,-5.7743 -11.7607,-13.2969c0,-8.1583 4.45,-14.25059 11.5487,-14.25059c5.3506,0 8.3703,3.12559 9.1649,6.51609l5.9333,0c-0.9536,-6.56906 -5.8274,-11.86666 -15.363,-11.86666c-10.1184,0 -17.1113,8.31723 -17.1113,19.86596c0,10.4363 5.9333,18.2768 16.4226,18.2768c5.9333,0 9.6416,-2.9667 11.019,-4.45l0.4768,0l0.9006,3.9202l3.8672,0l0,-19.5481l-16.3696,0zm31.0316,14.3035l0,-11.072l15.9987,0l0,-4.9798l-15.9987,0l0,-10.59516l18.2767,0l0,-5.19164l-23.7862,0l0,37.0832l24.3162,0l0,-5.2446l-18.8067,0zm49.9197,-31.8386l0,26.9648l-0.53,0l-17.905,-26.9648l-6.146,0l0,37.0832l5.51,0l0,-27.1237l0.477,0l18.276,27.1237l5.828,0l0,-37.0832l-5.51,0zm46.66,25.5874l-5.986,0c-1.325,3.9202 -4.98,6.675 -9.695,6.675c-7.257,0 -11.76,-5.5625 -11.76,-13.6678c0,-7.5756 4.344,-13.72081 11.283,-13.72081c5.033,0 8.371,2.6488 9.483,6.78091l5.986,0c-1.43,-8.31721 -8.105,-12.18446 -15.575,-12.18446c-10.33,0 -17.27,8.1583 -17.27,19.12436c0,11.1249 6.887,19.0184 17.853,19.0184c7.841,0 14.198,-4.609 15.681,-12.0256zm12.625,6.2512l0,-11.072l15.998,0l0,-4.9798l-15.998,0l0,-10.59516l18.276,0l0,-5.19164l-23.786,0l0,37.0832l24.316,0l0,-5.2446l-18.806,0z"/>
 </g>
</svg>