<?xml version="1.0" encoding="utf-8"?>
<!-- Generator: Adobe Illustrator 24.1.1, SVG Export Plug-In . SVG Version: 6.00 Build 0)  -->
<svg version="1.1" id="Calque_1" xmlns="http://www.w3.org/2000/svg" xmlns:xlink="http://www.w3.org/1999/xlink" x="0px" y="0px"
	 viewBox="0 0 206 61" style="enable-background:new 0 0 206 61;" xml:space="preserve">
<style type="text/css">
	.st0{fill:#083B44;}
	.st1{fill:#FF647D;}
</style>
<g>
	<path class="st0" d="M88.7,58.9h-3.5l-0.6,1.8h-1.3l2.8-8.1h1.7l2.8,8.1h-1.3L88.7,58.9z M88.3,57.9l-1.4-4.1l-1.4,4.1H88.3z"/>
</g>
<g>
	<path class="st0" d="M91.5,58.9l1.1-0.4c0.3,0.8,1.2,1.4,2.1,1.3c1.2,0,1.9-0.5,1.9-1.3v-0.1c0-2.1-4.9-0.3-4.9-3.4v-0.1
		c0-1.4,1.2-2.3,3-2.3c1.3-0.1,2.5,0.6,3,1.8l-1.1,0.4c-0.3-0.8-1.1-1.3-2-1.3c-1.1,0-1.8,0.5-1.8,1.2v0.1c0,2.1,4.9,0.3,4.9,3.4
		v0.1c0,1.5-1.3,2.4-3.2,2.4C93.2,60.9,91.9,60.1,91.5,58.9"/>
</g>
<g>
	<path class="st0" d="M99.1,58.9l1.1-0.4c0.3,0.8,1.2,1.4,2.1,1.3c1.1,0,1.9-0.5,1.9-1.3v-0.1c0-2.1-4.9-0.3-4.9-3.4v-0.1
		c0-1.4,1.2-2.3,3-2.3c1.3-0.1,2.5,0.6,3,1.8l-1.1,0.4c-0.3-0.8-1.1-1.3-2-1.3c-1.1,0-1.8,0.5-1.8,1.2v0.1c0,2.1,4.9,0.3,4.9,3.4
		v0.1c0,1.5-1.3,2.4-3.1,2.4C100.8,60.9,99.6,60.2,99.1,58.9"/>
</g>
<g>
	<polygon class="st0" points="112.8,59.7 112.8,60.7 107.3,60.7 107.3,52.6 112.7,52.6 112.7,53.7 108.5,53.7 108.5,56 112.5,56 
		112.5,57.1 108.5,57.1 108.5,59.7 	"/>
</g>
<g>
	<polygon class="st0" points="120,53.7 117.7,53.7 117.7,60.7 116.4,60.7 116.4,53.7 114.1,53.7 114.1,52.6 120,52.6 	"/>
</g>
<g>
	<polygon class="st0" points="132.3,60.7 131.1,60.7 131.1,54.4 128.6,58.4 128.1,58.4 125.6,54.4 125.6,60.7 124.4,60.7 
		124.4,52.6 125.8,52.6 128.4,56.8 130.9,52.6 132.3,52.6 	"/>
</g>
<g>
	<path class="st0" d="M139.2,58.9h-3.5l-0.6,1.8h-1.3l2.8-8.1h1.7l2.8,8.1h-1.3L139.2,58.9z M138.8,57.9l-1.4-4.1l-1.4,4.1H138.8z"
		/>
</g>
<g>
	<polygon class="st0" points="148.9,52.6 148.9,60.7 147.5,60.7 143.8,54.4 143.8,60.7 142.6,60.7 142.6,52.6 144,52.6 147.8,58.9 
		147.7,52.6 	"/>
</g>
<g>
	<path class="st0" d="M155.8,58.9h-3.5l-0.6,1.8h-1.3l2.8-8.1h1.7l2.8,8.1h-1.3L155.8,58.9z M155.5,57.9l-1.4-4.1l-1.4,4.1H155.5z"
		/>
</g>
<g>
	<path class="st0" d="M165.3,57.7c0,1.8-1.5,3.3-3.3,3.3s-3.3-1.5-3.3-3.3v-2c0.1-1.8,1.6-3.2,3.5-3.2c1.2,0.1,2.3,0.8,2.9,1.9
		L164,55c-0.4-1.1-1.7-1.6-2.7-1.1c-0.8,0.3-1.3,1.1-1.3,2v1.9c-0.1,1.1,0.8,2,1.9,2.1c0.1,0,0.1,0,0.2,0c1.1,0,2-0.8,2-1.9
		c0-0.1,0-0.2,0-0.2v-0.5h-2.2V56h3.5L165.3,57.7z"/>
</g>
<g>
	<polygon class="st0" points="172.7,59.7 172.7,60.7 167.2,60.7 167.2,52.6 172.6,52.6 172.6,53.7 168.4,53.7 168.4,56 172.4,56 
		172.4,57.1 168.4,57.1 168.4,59.7 	"/>
</g>
<g>
	<polygon class="st0" points="182.5,60.7 181.3,60.7 181.3,54.4 178.9,58.4 178.3,58.4 175.8,54.4 175.8,60.7 174.6,60.7 
		174.6,52.6 176,52.6 178.6,56.8 181.1,52.6 182.5,52.6 	"/>
</g>
<g>
	<polygon class="st0" points="190.3,59.7 190.3,60.7 184.7,60.7 184.7,52.6 190.1,52.6 190.1,53.7 186,53.7 186,56 189.9,56 
		189.9,57.1 186,57.1 186,59.7 	"/>
</g>
<g>
	<polygon class="st0" points="198.4,52.6 198.4,60.7 197,60.7 193.3,54.4 193.4,60.7 192.2,60.7 192.2,52.6 193.5,52.6 197.3,58.9 
		197.2,52.6 	"/>
</g>
<g>
	<polygon class="st0" points="206,53.7 203.6,53.7 203.6,60.7 202.4,60.7 202.4,53.7 200.1,53.7 200.1,52.6 206,52.6 	"/>
</g>
<g>
	<path class="st1" d="M64.1,26.2c-6.5-0.7-8-1.9-8-4.4s2.4-4.4,6.8-4.4c4,0,6.7,2,8,4.6l0.3,0.5l4.8-2.3l-0.2-0.5
		c-1.9-4.3-6.2-7.4-13-7.4c-7.4,0-12.1,3.9-12.1,9.5s3.7,8.4,11.9,9.2c6.3,0.6,8.2,1.3,8.2,4.4c0,2.8-2.9,4.7-7.4,4.7
		c-4,0-6.9-1.5-8.5-4.5l-0.3-0.7l-4.8,2.3l0.3,0.6c2,4.4,7.1,7.3,13.4,7.3c8.1,0,12.8-4.1,12.8-9.8S72.8,27.2,64.1,26.2"/>
</g>
<g>
	<path class="st1" d="M22.7,0C10.2,0,0.1,10.1,0,22.5C-0.1,35,10,45.2,22.5,45.3s22.7-10,22.8-22.5S35.3,0.1,22.7,0
		C22.7,0,22.7,0,22.7,0 M22.7,39.7c-9.3,0-16.8-7.5-16.8-16.8c0-0.1,0-0.2,0-0.3c0-9.3,7.5-16.8,16.8-16.8s16.8,7.5,16.8,16.8
		C39.6,31.9,32.2,39.6,22.7,39.7C22.8,39.7,22.7,39.7,22.7,39.7"/>
</g>
<g>
	<path class="st1" d="M90,4h-5.4v9h-5.5v4.9h5.5v20.7c0,3.5,2.5,5.9,6.3,5.9h7.6v-4.9h-7.2c-0.9,0-1.3-0.3-1.3-1.2V22l-0.3-4.2h8.7
		V13H90V4z"/>
</g>
<g>
	<path class="st1" d="M193.9,12.8c-4.3,0-8.1,1.4-10.8,4.6c-2.2-3-5.8-4.5-10.6-4.5h-12.8v31.5h5.5V22.1l-0.3-4.2h7.5
		c4.5,0,7.5,2.5,7.5,7.1v19.5h5.5V25c0-4.5,2.8-7.3,7.4-7.3s7.4,2.8,7.4,7.3v19.5h5.5V24.4C206,17.3,201.3,12.8,193.9,12.8"/>
</g>
<g>
	<path class="st1" d="M147.1,35.4l0.3,4.2h-7.6c-4.5,0-7.5-2.8-7.5-7.1V13h-5.5v19.6c0,7.3,5.1,11.9,12.7,11.9h13.2V13h-5.5
		L147.1,35.4L147.1,35.4z"/>
</g>
<g>
	<polygon class="st1" points="104.5,44.4 110,44.4 110,22.1 109.8,17.9 121.3,17.9 121.3,13 104.5,13 	"/>
</g>
<g>
	<path class="st0" d="M22.7,25.8c-1.8,0-3.3-1.5-3.3-3.3s1.5-3.3,3.3-3.3s3.3,1.5,3.3,3.3C25.9,24.3,24.5,25.8,22.7,25.8"/>
</g>
</svg>
